<svg width="876" height="89" viewBox="0 0 876 89" fill="none" xmlns="http://www.w3.org/2000/svg">
<ellipse cx="45" cy="44.5" rx="45" ry="44.5" fill="#482FF7"/>
<path d="M481 44.5C481 67.9511 461.769 87 438 87C414.231 87 395 67.9511 395 44.5C395 21.0489 414.231 2 438 2C461.769 2 481 21.0489 481 44.5Z" fill="#482FF7" fill-opacity="0.13" stroke="#482FF7" stroke-width="4"/>
<path d="M874 44.5C874 67.9511 854.769 87 831 87C807.231 87 788 67.9511 788 44.5C788 21.0489 807.231 2 831 2C854.769 2 874 21.0489 874 44.5Z" fill="#482FF7" fill-opacity="0.13" stroke="#482FF7" stroke-width="4"/>
<rect x="91" y="40" width="302" height="5" fill="#482FF7"/>
<path d="M38.3603 38.695V31.415H50.2253V57H42.0703V38.695H38.3603Z" fill="#F0F8FF"/>
<path d="M429.068 50.805C432.195 48.4717 434.668 46.36 436.488 44.47C438.308 42.5567 439.218 40.7717 439.218 39.115C439.218 38.555 439.09 38.1233 438.833 37.82C438.6 37.5167 438.285 37.365 437.888 37.365C437.421 37.365 437.048 37.61 436.768 38.1C436.511 38.5667 436.418 39.29 436.488 40.27H428.963C429.033 38.1 429.5 36.315 430.363 34.915C431.25 33.515 432.393 32.4883 433.793 31.835C435.193 31.1817 436.733 30.855 438.413 30.855C441.4 30.855 443.581 31.5783 444.958 33.025C446.358 34.4483 447.058 36.28 447.058 38.52C447.058 40.8767 446.3 43.0933 444.783 45.17C443.29 47.2233 441.411 48.9617 439.148 50.385H447.163V56.65H429.068V50.805Z" fill="#F0F8FF"/>
<path d="M821.808 39.43C821.878 36.6533 822.683 34.53 824.223 33.06C825.787 31.59 827.992 30.855 830.838 30.855C832.682 30.855 834.257 31.17 835.563 31.8C836.87 32.43 837.85 33.2817 838.503 34.355C839.18 35.4283 839.518 36.6417 839.518 37.995C839.518 39.6283 839.133 40.9117 838.363 41.845C837.593 42.755 836.73 43.3733 835.773 43.7V43.84C838.573 44.89 839.973 46.8383 839.973 49.685C839.973 51.1783 839.623 52.4967 838.923 53.64C838.223 54.7833 837.22 55.67 835.913 56.3C834.63 56.93 833.102 57.245 831.328 57.245C828.295 57.245 825.915 56.5217 824.188 55.075C822.462 53.6283 821.575 51.365 821.528 48.285H829.088C829.042 49.125 829.158 49.7667 829.438 50.21C829.742 50.63 830.255 50.84 830.978 50.84C831.398 50.84 831.748 50.6883 832.028 50.385C832.308 50.0583 832.448 49.6383 832.448 49.125C832.448 48.4717 832.227 47.9817 831.783 47.655C831.363 47.305 830.64 47.13 829.613 47.13H828.318V40.865H829.578C831.165 40.9583 831.958 40.3283 831.958 38.975C831.958 38.3917 831.83 37.96 831.573 37.68C831.34 37.4 831.037 37.26 830.663 37.26C829.8 37.26 829.368 37.9833 829.368 39.43H821.808Z" fill="#F0F8FF"/>
</svg>
