<svg width="876" height="89" viewBox="0 0 876 89" fill="none" xmlns="http://www.w3.org/2000/svg">
<ellipse cx="45" cy="44.5" rx="45" ry="44.5" fill="#482FF7"/>
<path d="M481 44.5C481 67.9511 461.769 87 438 87C414.231 87 395 67.9511 395 44.5C395 21.0489 414.231 2 438 2C461.769 2 481 21.0489 481 44.5Z" fill="#482FF7" fill-opacity="0.13" stroke="#482FF7" stroke-width="4"/>
<path d="M874 44.5C874 67.9511 854.769 87 831 87C807.231 87 788 67.9511 788 44.5C788 21.0489 807.231 2 831 2C854.769 2 874 21.0489 874 44.5Z" fill="#482FF7" fill-opacity="0.13" stroke="#482FF7" stroke-width="4"/>
<rect x="91" y="40" width="302" height="5" fill="#482FF7"/>
</svg>
